<svg width="460.000000pt" height="460.000000pt" viewBox="0 0 460.000000 460.000000" xmlns="http://www.w3.org/2000/svg">
  <g transform="translate(0.000000,460.000000) scale(0.100000,-0.100000)" fill="#000000" stroke="none">
    <path d="M0 2300 l0 -2300 2300 0 2300 0 0 2300 0 2300 -2300 0 -2300 0 0
-2300z m2489 1315 l31 -15 35 -32 36 -31 22 -41 22 -41 3 -229 3 -229 42 -66
42 -66 10 -17 10 -17 134 -213 134 -213 52 -80 51 -80 94 -150 93 -150 32 -50
32 -50 49 -78 49 -78 57 -89 56 -88 16 -28 17 -29 39 -60 39 -60 14 -30 14
-30 7 -38 7 -38 -15 -52 -15 -52 -32 -42 -32 -41 -46 -23 -46 -23 -52 -4 -53
-4 -55 26 -55 27 -34 42 -33 42 -42 70 -42 70 -75 115 -75 115 -20 35 -20 35
-17 26 -17 26 -33 54 -33 54 -100 155 -99 155 -10 23 -10 22 -14 0 -14 0 -4
-197 -3 -198 -22 -41 -22 -41 -36 -31 -35 -32 -29 -15 -29 -14 -40 -7 -40 -6
-51 17 -51 17 -45 44 -46 44 -15 35 -14 34 0 206 0 206 -16 -3 -17 -3 -176
-261 -176 -260 -58 -85 -58 -84 -101 -150 -101 -150 -38 -31 -39 -32 -51 -12
-52 -13 -53 12 -54 12 -42 36 -43 35 -28 51 -27 50 2 891 3 891 22 45 21 45
34 32 33 32 44 16 44 15 40 0 40 0 39 -12 40 -12 42 -40 41 -41 20 -40 20 -40
3 -447 3 -448 12 0 12 0 66 98 65 97 115 168 114 168 25 39 25 40 103 149 102
150 0 236 0 236 14 34 15 34 44 44 44 44 44 16 44 17 47 -5 47 -4 30 -16z" />
  </g>
  <g transform="translate(0.000000,460.000000) scale(0.100000,-0.100000)" fill="#729ffa" stroke="none">
    <path d="M1120 3115 l-13 -15 6 -6 6 -6 16 5 15 6 0 16 0 15 -9 0 -9 0 -12
-15z" />
    <path d="M1450 3065 l0 -15 8 0 8 0 19 -50 19 -50 13 0 12 0 -11 33 -11 32
-21 32 -21 33 -7 0 -8 0 0 -15z" />
    <path d="M1405 2815 l-90 -11 -15 -7 -15 -7 -130 -2 -130 -3 -3 -111 -3 -112
73 -4 73 -4 7 10 7 11 28 1 28 2 105 3 104 2 41 12 40 12 3 112 3 111 -18 -2
-18 -1 -90 -12z" />
    <path d="M2360 1833 l0 -8 -102 0 -103 0 -3 -80 -3 -80 11 -37 11 -38 49 -49
49 -49 52 -17 52 -17 48 5 48 6 30 16 31 15 35 32 36 31 21 41 22 41 4 88 4
87 -58 2 -59 1 -72 -1 -73 0 0 9 0 9 -15 0 -15 0 0 -7z" />
  </g>
  <g transform="translate(0.000000,460.000000) scale(0.100000,-0.100000)" fill="#008c6a" stroke="none">
    <path d="M3070 2305 l0 -15 10 0 10 0 0 -15 0 -15 16 0 15 0 -18 30 -17 30 -8
0 -8 0 0 -15z" />
    <path d="M3240 2035 l0 -15 10 0 10 0 0 -15 0 -15 16 0 15 0 -18 30 -17 30 -8
0 -8 0 0 -15z" />
    <path d="M2741 1903 l22 -38 16 -27 16 -28 8 0 7 0 0 14 0 15 -15 15 -15 15 0
10 0 11 -9 0 -9 0 -6 25 -6 25 -16 0 -16 0 23 -37z" />
    <path d="M3492 1633 l3 -18 18 -3 19 -4 -12 21 -11 21 -10 0 -10 0 3 -17z" />
    <path d="M3562 1523 l3 -18 18 -3 19 -4 -12 21 -11 21 -10 0 -10 0 3 -17z" />
    <path d="M3590 1475 l0 -15 10 0 10 0 0 -15 0 -15 10 0 10 0 0 -15 0 -15 -52
-1 -53 -1 -219 1 -220 0 -8 15 -8 15 -15 15 -15 15 0 10 0 11 -15 0 -15 0 0
-4 0 -5 79 -123 80 -123 42 -70 42 -70 33 -42 34 -42 55 -26 55 -27 62 4 63 4
46 23 46 23 32 41 32 42 15 53 16 54 -7 44 -6 45 -12 27 -12 27 -29 45 -28 45
-22 32 -21 33 -7 0 -8 0 0 -15z" />
  </g>
  <g transform="translate(0.000000,460.000000) scale(0.100000,-0.100000)" fill="#029775" stroke="none">
    <path d="M2797 1824 l-6 -6 16 -24 15 -24 9 0 9 0 0 15 0 15 -10 0 -10 0 0 15
0 15 -8 0 -9 0 -6 -6z" />
    <path d="M2836 1762 l-5 -9 17 -19 18 -19 0 -7 -1 -6 20 -24 20 -24 3 -14 3
-14 20 -28 20 -28 9 0 9 0 -5 -14 -5 -14 23 -16 22 -16 -7 0 -8 0 17 -31 16
-32 26 -25 27 -25 -15 8 -15 8 13 -14 12 -13 83 -1 82 -1 12 -7 12 -7 6 10 7
11 14 -12 14 -11 0 10 0 11 20 -2 20 -1 0 -7 0 -6 43 6 42 6 61 -1 60 -1 14
-8 13 -8 -7 11 -7 12 16 0 16 0 -7 -12 -7 -11 14 9 14 9 15 0 15 0 14 9 14 9
-7 -11 -7 -12 10 0 11 0 0 10 0 11 -15 5 -15 6 6 9 5 9 -23 24 -23 23 -3 14
-3 13 -17 14 -17 13 13 -6 14 -7 -23 35 -24 35 -9 -5 -9 -6 7 11 6 11 -22 22
-23 22 15 -8 15 -8 -20 24 -20 24 -10 7 -10 8 8 0 8 0 -10 18 -10 18 -228 -2
-228 -2 -51 14 -51 15 -16 -7 -17 -6 -6 16 -6 16 -8 0 -9 0 -5 -8z" />
  </g>
  <g transform="translate(0.000000,460.000000) scale(0.100000,-0.100000)" fill="#05a481" stroke="none">
    <path d="M2780 2765 l0 -15 10 0 10 0 0 -15 0 -15 10 0 10 0 0 13 -1 12 -13
18 -13 17 -7 0 -6 0 0 -15z" />
    <path d="M2640 2061 l0 -20 19 -6 20 -6 -5 -13 -5 -14 18 -13 18 -14 3 -15 3
-15 14 -11 15 -11 -7 -6 -6 -7 11 0 12 0 -2 -9 -3 -10 20 -16 20 -16 -15 6
-15 6 19 -15 20 -16 -9 0 -9 0 20 -16 19 -15 -15 7 -15 8 15 -20 14 -19 21
-18 20 -19 -15 7 -15 6 17 -14 18 -14 -7 -6 -6 -6 29 7 29 8 23 -4 22 -3 -5
-9 -6 -9 21 4 20 4 0 -8 0 -8 39 7 40 7 13 -8 13 -9 19 6 20 6 160 0 161 0 8
5 8 5 -18 15 -18 14 13 -6 13 -7 -13 21 -13 21 -8 0 -8 0 6 9 5 10 -17 13 -18
13 -3 15 -3 15 -14 11 -15 11 7 6 6 7 -12 0 -12 0 6 9 5 10 -20 14 -20 14 7 6
6 7 -12 0 -12 0 6 10 6 10 -11 0 -11 0 6 9 5 10 -14 8 -15 8 0 10 1 10 -11 3
-11 4 0 -16 0 -15 -222 6 -223 6 -32 14 -33 13 0 10 0 9 -37 10 -38 11 -12 0
-13 0 0 -19z" />
  </g>
  <g transform="translate(0.000000,460.000000) scale(0.100000,-0.100000)" fill="#6d95fb" stroke="none">
    <path d="M1516 2621 l-6 -9 -37 -8 -38 -8 -55 -1 -55 -1 -78 -3 -77 -3 -10
-17 -9 -16 -1 11 0 10 -65 0 -66 -1 3 -29 3 -29 155 1 155 2 50 11 50 11 48 5
47 5 0 39 0 39 -4 0 -5 0 -5 -9z" />
    <path d="M2162 2092 l-24 -4 6 -21 6 -22 0 -116 0 -116 98 -1 97 -1 55 -1 55
-1 88 1 88 0 10 -5 9 -6 0 145 0 146 -32 1 -33 0 -200 2 -200 2 -23 -3z" />
  </g>
  <g transform="translate(0.000000,460.000000) scale(0.100000,-0.100000)" fill="#81aefa" stroke="none">
    <path d="M1198 3152 l-18 -3 0 -9 0 -9 -14 5 -15 6 -46 -43 -46 -42 4 -11 4
-11 -15 -11 -14 -10 -1 -27 -2 -27 -7 0 -8 0 0 -101 0 -101 13 10 12 10 127 0
128 -1 12 11 13 10 25 0 25 0 60 7 60 6 18 2 17 1 0 73 0 73 -10 0 -9 0 5 15
6 15 -11 0 -10 0 5 15 6 15 -16 6 -16 6 6 9 5 9 -15 6 -16 6 5 8 5 8 -37 30
-38 29 -35 12 -35 11 -55 -2 -55 -2 -17 -4z" />
  </g>
  <g transform="translate(0.000000,460.000000) scale(0.100000,-0.100000)" fill="#6886fc" stroke="none">
    <path d="M2213 2372 l-73 -3 0 -149 0 -148 28 7 27 8 27 -8 28 -8 6 10 6 10
14 -12 14 -11 0 8 0 9 71 -2 71 -1 3 -4 4 -4 63 6 63 5 43 -6 42 -5 0 148 0
148 -17 1 -18 0 -165 2 -165 2 -72 -3z" />
  </g>
  <g transform="translate(0.000000,460.000000) scale(0.100000,-0.100000)" fill="#08ad8a" stroke="none">
    <path d="M2640 2199 l0 -140 10 6 10 6 12 -7 13 -8 19 -2 20 -1 4 -12 4 -11
36 -16 37 -15 209 -3 208 -3 9 -14 9 -14 0 13 0 12 11 0 10 0 -6 -10 -6 -10 6
0 6 0 13 12 13 13 -16 13 -16 13 15 -6 15 -6 -20 16 -20 16 0 14 0 14 -20 16
-20 16 13 -6 12 -6 -21 35 -21 36 -10 0 -9 0 6 10 6 10 -15 6 -16 6 5 9 6 8
-22 11 -21 12 -93 -5 -93 -5 -21 15 -22 15 -12 -5 -13 -5 -57 10 -57 10 0 9 0
9 -15 0 -15 0 0 10 0 10 -21 0 -21 0 -5 20 -5 20 -14 0 -14 0 0 -141z" />
  </g>
  <g transform="translate(0.000000,460.000000) scale(0.100000,-0.100000)" fill="#6377fd" stroke="none">
    <path d="M2140 2480 l0 -127 38 3 37 4 73 3 72 2 0 -8 0 -8 11 6 10 7 97 -2
97 -1 38 -2 37 -2 0 125 0 125 -255 1 -255 1 0 -127z" />
  </g>
  <g transform="translate(0.000000,460.000000) scale(0.100000,-0.100000)" fill="#c58f66" stroke="none">
    <path d="M1570 2130 l0 -5 -23 -25 -23 -25 -42 -62 -42 -62 0 -15 0 -16 -15 0
-15 0 0 -15 0 -15 15 0 15 0 0 15 0 15 253 1 252 1 50 -2 50 -1 53 76 52 77 0
28 0 29 -32 0 -33 0 -257 4 -258 3 0 -6z" />
  </g>
  <g transform="translate(0.000000,460.000000) scale(0.100000,-0.100000)" fill="#584efd" stroke="none">
    <path d="M2150 3125 l0 -125 250 0 250 0 0 125 0 125 -250 0 -250 0 0 -125z" />
  </g>
  <g transform="translate(0.000000,460.000000) scale(0.100000,-0.100000)" fill="#d47f57" stroke="none">
    <path d="M2046 1942 l-6 -9 -307 0 -308 1 1 -17 2 -17 -8 5 -8 5 -37 -54 -37
-54 8 -14 7 -13 -8 8 -8 7 -19 -17 -18 -16 0 -11 0 -11 307 3 307 3 12 10 11
9 63 91 62 91 -5 4 -5 5 -6 -9z" />
  </g>
  <g transform="translate(0.000000,460.000000) scale(0.100000,-0.100000)" fill="#5b5dfd" stroke="none">
    <path d="M2313 3012 l-162 -2 -6 -33 -6 -32 3 -80 3 -80 253 -2 252 -1 0 116
0 117 -87 0 -88 0 -162 -3z" />
  </g>
  <g transform="translate(0.000000,460.000000) scale(0.100000,-0.100000)" fill="#e16c47" stroke="none">
    <path d="M1293 1733 l-15 -22 8 -12 7 -12 -10 6 -11 7 -12 -15 -12 -14 8 -12
7 -12 -11 7 -10 6 -23 -37 -23 -38 -8 -3 -8 -4 0 -14 0 -14 15 0 15 0 0 10 0
10 299 -2 298 -3 62 91 61 91 0 4 0 4 -311 0 -312 0 -14 -22z" />
  </g>
  <g transform="translate(0.000000,460.000000) scale(0.100000,-0.100000)" fill="#5f6afd" stroke="none">
    <path d="M2140 2703 l0 -109 255 -1 255 -1 0 102 0 102 -242 -1 -243 -1 -12 9
-13 9 0 -109z" />
  </g>
  <g transform="translate(0.000000,460.000000) scale(0.100000,-0.100000)" fill="#563ffd" stroke="none">
    <path d="M2258 3452 l-108 -3 0 -104 0 -105 33 0 32 -1 217 -2 218 -2 0 102 0
102 -12 8 -13 7 -130 1 -130 0 -107 -3z" />
  </g>
  <g transform="translate(0.000000,460.000000) scale(0.100000,-0.100000)" fill="#b29e76" stroke="none">
    <path d="M1845 2322 l-150 -3 -62 -93 -63 -93 0 -5 0 -5 238 -1 237 -1 53 -5
52 -5 0 100 0 100 -12 4 -13 3 -65 4 -65 3 -150 -3z" />
    <path d="M1490 2025 l0 -15 -10 0 -10 0 0 -15 0 -15 -10 0 -10 0 0 -14 0 -14
-11 -4 -12 -4 4 -13 5 -13 37 56 37 56 0 5 0 5 -10 0 -10 0 0 -15z" />
  </g>
  <g transform="translate(0.000000,460.000000) scale(0.100000,-0.100000)" fill="#0ab692" stroke="none">
    <path d="M2640 2439 l0 -120 10 6 10 6 0 -15 0 -15 20 -11 20 -11 0 8 1 8 10
-18 10 -17 10 5 9 6 0 -9 0 -9 33 -8 32 -8 18 0 17 0 0 -6 0 -7 20 0 20 0 0
11 1 10 12 -16 12 -16 73 1 72 1 0 -10 0 -10 8 11 7 11 32 -3 32 -2 5 14 5 14
-9 0 -10 0 2 9 3 10 -20 16 -20 16 15 -6 15 -6 -17 14 -18 14 7 6 6 7 -17 6
-16 6 6 9 5 9 -11 0 -11 0 6 9 6 10 -21 11 -21 11 6 10 6 9 -11 0 -11 0 6 10
6 10 -10 0 -11 0 3 12 2 11 -49 4 -50 3 -11 10 -11 9 -43 -1 -44 0 -9 16 -9
16 -32 0 -32 0 -27 25 -27 25 -11 0 -10 0 0 -121z" />
  </g>
  <g transform="translate(0.000000,460.000000) scale(0.100000,-0.100000)" fill="#5d94f8" stroke="none">
    <path d="M1427 2552 l-32 -13 -16 4 -16 4 -17 -9 -17 -10 -144 0 -144 0 -11 7
-10 6 0 -111 0 -112 153 6 154 6 32 11 32 11 51 -4 51 -5 18 4 19 5 0 107 0
106 -36 0 -35 1 -32 -14z" />
  </g>
  <g transform="translate(0.000000,460.000000) scale(0.100000,-0.100000)" fill="#4b87f6" stroke="none">
    <path d="M2641 2628 l0 -113 9 20 9 20 0 93 1 92 -10 0 -10 0 1 -112z" />
    <path d="M1518 2365 l-5 -6 -84 -4 -84 -4 -45 -6 -45 -6 -117 -2 -118 -2 0
-98 0 -99 233 7 232 8 23 8 22 9 0 100 0 100 -3 0 -4 0 -5 -5z" />
  </g>
  <g transform="translate(0.000000,460.000000) scale(0.100000,-0.100000)" fill="#eb5a39" stroke="none">
    <path d="M1193 1576 l7 -17 -9 5 -8 6 -42 -59 -41 -59 0 -11 0 -11 -10 0 -10
0 0 -15 0 -15 15 0 15 0 0 11 0 10 283 -1 282 -1 16 0 16 1 52 75 51 75 0 4 0
4 -294 1 -295 1 -17 7 -17 6 6 -17z" />
  </g>
  <g transform="translate(0.000000,460.000000) scale(0.100000,-0.100000)" fill="#377af5" stroke="none">
    <path d="M2640 2871 l0 -140 10 -6 10 -6 0 140 0 140 -10 6 -10 6 0 -140z" />
    <path d="M1500 2174 l-25 -12 -227 -4 -228 -3 0 -91 0 -91 227 4 227 3 16 27
15 28 13 10 13 10 -3 65 -3 65 -25 -11z" />
  </g>
  <g transform="translate(0.000000,460.000000) scale(0.100000,-0.100000)" fill="#0ebf9c" stroke="none">
    <path d="M2648 2783 l-3 -218 12 -25 13 -25 0 9 0 9 21 -19 20 -18 30 -1 30
-1 8 -13 8 -13 44 -3 44 -2 15 -6 15 -5 38 -7 37 -6 11 6 10 7 -18 15 -18 14
15 -6 15 -6 -19 15 -20 16 9 0 9 0 -20 16 -19 15 15 -6 15 -7 -25 22 -25 22
15 -7 15 -6 -20 16 -20 16 3 15 3 14 -15 6 -16 6 6 9 5 9 -15 6 -16 6 6 9 5 9
-15 6 -16 6 6 9 5 9 -11 0 -11 0 5 9 6 9 -16 6 -15 6 6 10 6 10 -15 6 -16 6 5
9 6 8 -20 20 -19 19 5 6 6 6 -17 6 -16 6 0 18 0 18 -16 6 -15 6 6 10 6 10 -15
6 -16 6 6 9 5 9 -15 6 -16 6 6 9 5 9 -11 0 -11 0 6 9 5 10 -9 6 -10 6 -3 -218z" />
  </g>
  <g transform="translate(0.000000,460.000000) scale(0.100000,-0.100000)" fill="#f14a2d" stroke="none">
    <path d="M1712 1444 l-8 -15 -292 1 -292 0 -17 7 -16 6 6 -17 7 -17 -10 6 -10
6 -20 -33 -20 -33 5 -13 5 -13 -9 5 -9 6 -6 -16 -6 -16 0 -9 0 -9 293 0 292 0
12 8 11 7 44 65 44 65 8 13 7 12 -5 0 -5 0 -9 -16z" />
  </g>
  <g transform="translate(0.000000,460.000000) scale(0.100000,-0.100000)" fill="#9dac83" stroke="none">
    <path d="M1757 2410 l-67 -99 0 -6 0 -6 9 5 8 5 164 1 164 0 58 -3 57 -3 0 96
0 97 -52 7 -53 6 -110 0 -111 0 -67 -100z" />
  </g>
  <g transform="translate(0.000000,460.000000) scale(0.100000,-0.100000)" fill="#5534fc" stroke="none">
    <path d="M2311 3633 l-44 -16 -44 -44 -44 -44 -15 -34 -14 -34 1 -33 2 -33 4
23 4 22 107 1 107 1 127 0 126 0 11 -6 10 -6 -8 28 -9 28 -15 31 -16 30 -36
31 -35 32 -32 16 -31 16 -56 4 -56 4 -44 -17z" />
  </g>
  <g transform="translate(0.000000,460.000000) scale(0.100000,-0.100000)" fill="#276ff4" stroke="none">
    <path d="M1020 1909 l0 -78 18 -5 18 -6 156 2 156 3 21 31 21 30 0 11 0 11 15
6 15 5 0 11 0 11 15 16 15 15 -6 9 -6 10 -219 -3 -219 -2 0 -77z" />
  </g>
  <g transform="translate(0.000000,460.000000) scale(0.100000,-0.100000)" fill="#f63b22" stroke="none">
    <path d="M1026 1313 l-6 -6 0 -63 0 -62 265 0 265 0 32 52 33 51 7 10 7 11
-281 -3 -280 -2 -18 9 -17 9 -7 -6z" />
  </g>
  <g transform="translate(0.000000,460.000000) scale(0.100000,-0.100000)" fill="#85b890" stroke="none">
    <path d="M1963 2699 l-22 -8 -21 -38 -21 -38 -38 -55 -39 -55 2 -1 1 -1 163
-6 162 -6 0 99 0 99 -32 5 -33 5 -50 4 -50 5 -22 -9z" />
  </g>
  <g transform="translate(0.000000,460.000000) scale(0.100000,-0.100000)" fill="#f92b17" stroke="none">
    <path d="M1547 1203 l-5 -8 -261 0 -261 0 0 -10 0 -10 27 -52 26 -53 19 6 19
6 184 0 183 -1 42 61 41 60 -4 5 -5 4 -5 -8z" />
  </g>
  <g transform="translate(0.000000,460.000000) scale(0.100000,-0.100000)" fill="#1766f4" stroke="none">
    <path d="M1020 1757 l0 -93 102 -2 101 -1 8 -13 8 -13 15 20 14 20 2 10 3 10
13 10 13 10 3 15 3 15 18 13 17 13 -5 10 -6 9 10 0 11 0 0 15 0 15 13 0 12 1
-16 9 -15 9 -145 -3 -144 -4 -17 9 -18 10 0 -94z" />
    <path d="M1130 1505 l0 -15 -10 0 -10 0 0 -15 0 -15 -10 0 -10 0 0 -15 0 -15
-10 0 -10 0 0 -15 0 -15 8 0 7 0 21 33 21 32 17 28 18 27 -16 0 -16 0 0 -15z" />
  </g>
  <g transform="translate(0.000000,460.000000) scale(0.100000,-0.100000)" fill="#045df3" stroke="none">
    <path d="M1020 1499 l0 -179 9 0 9 0 7 18 6 17 2 5 1 5 18 19 17 19 -4 7 -5 8
16 6 15 6 -5 9 -6 9 16 6 15 6 -5 9 -6 9 16 6 17 6 -6 6 -6 6 19 17 19 16 3
15 3 14 20 18 20 17 -7 1 -8 0 20 20 21 21 -6 9 -6 10 12 0 12 0 -7 7 -7 8
-115 1 -114 1 0 -178z" />
  </g>
  <g transform="translate(0.000000,460.000000) scale(0.100000,-0.100000)" fill="#fb170a" stroke="none">
    <path d="M1071 1089 l11 -6 -1 -7 -1 -6 35 -31 35 -31 46 -14 47 -14 32 0 31
0 50 15 49 15 38 36 38 36 -5 6 -6 5 -205 2 -205 1 11 -7z" />
  </g>
  <g transform="translate(0.000000,460.000000) scale(0.100000,-0.100000)" fill="#65c09b" stroke="none">
    <path d="M2054 2848 l-90 -133 -8 -13 -7 -12 28 1 28 1 73 -6 72 -5 0 149 0
150 -3 0 -3 0 -90 -132z" />
  </g>
  <g transform="translate(0.000000,460.000000) scale(0.100000,-0.100000)" fill="#131715" stroke="none">
    <path d="M1972 2729 l-43 -62 4 -3 4 -4 25 37 25 38 17 28 18 27 -4 0 -4 0
-42 -61z" />
    <path d="M1746 2395 l-36 -55 0 -7 0 -8 23 35 24 35 18 28 17 27 -4 0 -5 0
-37 -55z" />
    <path d="M2054 1947 l-21 -32 -17 -27 -18 -28 4 0 5 0 37 56 37 56 -3 3 -3 4
-21 -32z" />
    <path d="M1828 1613 l-25 -38 -18 -30 -19 -30 10 10 10 10 38 53 37 54 -4 4
-4 4 -25 -37z" />
  </g>
  <g transform="translate(0.000000,460.000000) scale(0.100000,-0.100000)" fill="#3b507a" stroke="none">
    <path d="M1025 2440 l0 -505 2 252 3 253 -3 252 -2 253 0 -505z" />
    <path d="M2640 1880 l0 -193 5 4 4 5 1 183 2 183 -6 6 -6 5 0 -193z" />
  </g>
  <g transform="translate(0.000000,460.000000) scale(0.100000,-0.100000)" fill="#20314d" stroke="none">
    <path d="M1522 2508 l-2 -438 8 0 7 0 -3 282 -2 283 -3 155 -3 155 -2 -437z" />
  </g>
  <g transform="translate(0.000000,460.000000) scale(0.100000,-0.100000)" fill="#231467" stroke="none">
    <path d="M2644 3215 l0 -220 3 113 4 113 -4 107 -3 107 0 -220z" />
    <path d="M1022 1626 l-2 -330 8 10 7 9 -5 320 -6 320 -2 -329z" />
  </g>
  <g transform="translate(0.000000,460.000000) scale(0.100000,-0.100000)" fill="#024133" stroke="none" />
  <g transform="translate(0.000000,460.000000) scale(0.100000,-0.100000)" fill="#5873bc" stroke="none">
    <path d="M2644 2295 l0 -240 3 123 4 123 -4 117 -3 117 0 -240z" />
  </g>
  <g transform="translate(0.000000,460.000000) scale(0.100000,-0.100000)" fill="#046f57" stroke="none" />
  <g transform="translate(0.000000,460.000000) scale(0.100000,-0.100000)" fill="#5f1811" stroke="none" />
  <g transform="translate(0.000000,460.000000) scale(0.100000,-0.100000)" fill="#ae5f54" stroke="none" />
  <g transform="translate(0.000000,460.000000) scale(0.100000,-0.100000)" fill="#627d7e" stroke="none" />
  <g transform="translate(0.000000,460.000000) scale(0.100000,-0.100000)" fill="#99110f" stroke="none" />
  <g transform="translate(0.000000,460.000000) scale(0.100000,-0.100000)" fill="#6f5c43" stroke="none" />
  <g transform="translate(0.000000,460.000000) scale(0.100000,-0.100000)" fill="#3922ab" stroke="none" />
</svg>